<svg xmlns="http://www.w3.org/2000/svg" height="496pt" viewBox="0 0 496 496" width="496pt"><path fill="#F5BF23" d="m96 448h96v16h-96zm0 0"/><path fill="#F5BF23" d="m376 304c13.230469 0 24-10.769531 24-24v-160c0-13.230469-10.769531-24-24-24h-88v-56c0-22.054688-17.945312-40-40-40h-208c-22.054688 0-40 17.945312-40 40v416c0 22.054688 17.945312 40 40 40h208c22.054688 0 40-17.945312 40-40v-152zm0-16h-240c-4.40625 0-8-3.585938-8-8v-104h100.199219c-2.671875 7.519531-4.199219 15.574219-4.199219 24 0 39.703125 32.304688 72 72 72s72-32.296875 72-72c0-8.425781-1.527344-16.480469-4.199219-24h20.199219v104c0 4.414062-3.59375 8-8 8zm-80-144c30.878906 0 56 25.128906 56 56s-25.121094 56-56 56-56-25.128906-56-56 25.121094-56 56-56zm88-24v40h-28.175781c-12.9375-19.28125-34.921875-32-59.824219-32s-46.894531 12.71875-59.824219 32h-108.175781v-40c0-4.414062 3.59375-8 8-8h240c4.40625 0 8 3.585938 8 8zm-344-104h208c13.230469 0 24 10.769531 24 24v24h-256v-24c0-13.230469 10.769531-24 24-24zm208 464h-208c-13.230469 0-24-10.769531-24-24v-24h256v24c0 13.230469-10.769531 24-24 24zm24-64h-256v-336h256v16h-136c-13.230469 0-24 10.769531-24 24v160c0 13.230469 10.769531 24 24 24h136zm0 0"/><path fill="#F5BF23" d="m296 240c22.054688 0 40-17.945312 40-40s-17.945312-40-40-40-40 17.945312-40 40 17.945312 40 40 40zm0-64c13.230469 0 24 10.769531 24 24s-10.769531 24-24 24-24-10.769531-24-24 10.769531-24 24-24zm0 0"/><path fill="#F5BF23" d="m144 128h16v16h-16zm0 0"/><path fill="#F5BF23" d="m176 128h16v16h-16zm0 0"/><path fill="#F5BF23" d="m208 128h16v16h-16zm0 0"/><path fill="#F5BF23" d="m144 272h48v-48h-48zm16-32h16v16h-16zm0 0"/><path fill="#F5BF23" d="m208 256h16v16h-16zm0 0"/><path fill="#F5BF23" d="m464 128v-16h-16v16c0 17.648438-14.351562 32-32 32v16c17.648438 0 32 14.351562 32 32v16h16v-16c0-17.648438 14.351562-32 32-32v-16c-17.648438 0-32-14.351562-32-32zm-8 53.519531c-3.558594-5.359375-8.160156-9.960937-13.519531-13.519531 5.359375-3.558594 9.960937-8.160156 13.519531-13.519531 3.558594 5.359375 8.160156 9.960937 13.519531 13.519531-5.359375 3.558594-9.960937 8.160156-13.519531 13.519531zm0 0"/><path fill="#F5BF23" d="m416 360v-16h-16v16c0 17.648438-14.351562 32-32 32v16c17.648438 0 32 14.351562 32 32v16h16v-16c0-17.648438 14.351562-32 32-32v-16c-17.648438 0-32-14.351562-32-32zm-8 53.519531c-3.558594-5.359375-8.160156-9.960937-13.519531-13.519531 5.359375-3.558594 9.960937-8.160156 13.519531-13.519531 3.558594 5.359375 8.160156 9.960937 13.519531 13.519531-5.359375 3.558594-9.960937 8.160156-13.519531 13.519531zm0 0"/><path fill="#F5BF23" d="m80 304v-16h-16v16c0 17.648438-14.351562 32-32 32v16c17.648438 0 32 14.351562 32 32v16h16v-16c0-17.648438 14.351562-32 32-32v-16c-17.648438 0-32-14.351562-32-32zm-8 53.519531c-3.558594-5.359375-8.160156-9.960937-13.519531-13.519531 5.359375-3.558594 9.960937-8.160156 13.519531-13.519531 3.558594 5.359375 8.160156 9.960937 13.519531 13.519531-5.359375 3.558594-9.960937 8.160156-13.519531 13.519531zm0 0"/></svg>